#!OML:ASF E:\Style4\Style4.ASF
:FULLY-SPECIFIED
:DEGREES
1900
root 0.400452 16.7789 -1.44132 6.04122 -18.3856 3.4895
lowerback 18.7696 3.45089 -0.822851
upperback 11.6447 4.18695 -1.14663
thorax 2.08326 2.03834 -1.43723
lowerneck 5.84503 -4.86494 -3.82413
upperneck -9.50494 -6.74479 2.18618
head -3.93725 -3.31852 1.74585
rclavicle -1.59028e-015 -1.47101e-014
rhumerus 18.8478 9.91193 -82.5049
rradius 127.775
rwrist 24.1337
rhand 23.5955 -3.88196
rfingers 7.12502
rthumb 47.8686 -26.1559
lclavicle -1.59028e-015 -1.47101e-014
lhumerus 23.4762 -14.8018 79.8606
lradius 129.285
lwrist -16.0655
lhand 15.815 41.8498
lfingers 7.12502
lthumb 40.6183 66.8863
rfemur -39.6722 10.3593 13.1063
rtibia 55.5195
rfoot -22.1837 -7.05136
rtoes -14.7775
lfemur -33.4347 10.2072 -24.4975
ltibia 54.8329
lfoot -28.6185 13.0988
ltoes -16.4355
1901
root 0.447504 16.7747 -1.4313 5.99664 -18.9945 3.59282
lowerback 18.8974 3.24056 -1.11691
upperback 11.5165 3.86171 -1.07777
thorax 1.8464 1.85461 -1.15864
lowerneck 5.74501 -4.84586 -3.98017
upperneck -9.35053 -6.72878 2.18894
head -3.85812 -3.30725 1.76412
rclavicle -3.49861e-014 -6.75868e-015
rhumerus 18.7975 9.73617 -82.4076
rradius 127.789
rwrist 24.3522
rhand 23.6481 -4.2181
rfingers 7.12502
rthumb 47.9171 -26.4695
lclavicle -3.49861e-014 -6.75868e-015
lhumerus 23.7696 -14.9649 79.653
lradius 128.903
lwrist -15.5992
lhand 15.0355 41.9661
lfingers 7.12502
lthumb 39.8851 67.2267
rfemur -39.832 10.5933 12.7969
rtibia 55.4953
rfoot -22.08 -6.77913
rtoes -14.9831
lfemur -33.4411 10.4028 -24.8076
ltibia 54.9468
lfoot -28.7967 13.4084
ltoes -16.5127
1902
root 0.494577 16.7697 -1.41809 6.00899 -19.5716 3.35671
lowerback 19.0268 3.02451 -0.982403
upperback 11.4507 3.59363 -0.962643
thorax 1.70476 1.72037 -1.07618
lowerneck 5.63896 -4.85022 -3.92038
upperneck -9.26265 -6.73441 2.08734
head -3.81131 -3.30882 1.71312
rclavicle -1.00585e-013 5.00937e-014
rhumerus 18.5392 9.43479 -82.4433
rradius 127.854
rwrist 24.5251
rhand 23.66 -4.3703
rfingers 7.12502
rthumb 47.9282 -26.6166
lclavicle -1.00585e-013 5.00937e-014
lhumerus 24.1657 -15.2626 79.3934
lradius 128.639
lwrist -15.3046
lhand 15.1172 41.3156
lfingers 7.12502
lthumb 39.962 66.5532
rfemur -39.8795 10.8676 12.858
rtibia 55.4414
rfoot -22.0467 -6.46469
rtoes -14.8704
lfemur -33.4154 10.6353 -24.7444
ltibia 55.1064
lfoot -29.0398 13.5483
ltoes -15.9869
1903
root 0.541892 16.7656 -1.40458 6.00799 -20.1773 3.17101
lowerback 19.121 2.80263 -0.884804
upperback 11.3993 3.31376 -0.878697
thorax 1.5968 1.57943 -1.00066
lowerneck 5.64815 -4.82499 -4.00473
upperneck -9.26906 -6.70748 2.10708
head -3.813 -3.29364 1.73378
rclavicle -1.27222e-014 -1.55052e-014
rhumerus 18.3335 9.1873 -82.4684
rradius 127.89
rwrist 24.6405
rhand 23.3448 -4.55731
rfingers 7.12502
rthumb 47.6373 -26.9376
lclavicle -1.27222e-014 -1.55052e-014
lhumerus 24.5199 -15.5538 79.0712
lradius 128.522
lwrist -15.2354
lhand 15.3894 40.961
lfingers 7.12502
lthumb 40.2181 66.1209
rfemur -39.9392 11.1793 12.8598
rtibia 55.3921
rfoot -21.998 -6.22331
rtoes -14.8679
lfemur -33.4033 10.8754 -24.7321
ltibia 55.2789
lfoot -29.3635 13.5949
ltoes -15.1084
1904
root 0.587568 16.7584 -1.39095 5.99254 -20.8281 3.12244
lowerback 19.1681 2.59839 -0.921467
upperback 11.3642 3.03703 -0.836878
thorax 1.52656 1.43488 -0.891467
lowerneck 5.59968 -4.78058 -4.28727
upperneck -9.23223 -6.65347 2.30201
head -3.77702 -3.26686 1.84229
rclavicle 2.10712e-014 7.95139e-016
rhumerus 18.3277 8.87176 -82.372
rradius 127.887
rwrist 24.7157
rhand 23.1317 -4.66111
rfingers 7.12502
rthumb 47.4406 -27.1308
lclavicle 2.10712e-014 7.95139e-016
lhumerus 24.8937 -15.7903 78.7524
lradius 128.427
lwrist -15.1147
lhand 15.4758 41.1167
lfingers 7.12502
lthumb 40.2993 66.2517
rfemur -40.06 11.5387 12.7071
rtibia 55.3584
rfoot -21.9153 -6.09358
rtoes -15.4534
lfemur -33.4177 11.1537 -24.8731
ltibia 55.4487
lfoot -29.6465 13.7043
ltoes -14.5123
1905
root 0.632824 16.7523 -1.37709 5.97618 -21.4474 3.04804
lowerback 19.2014 2.39817 -0.911139
upperback 11.3504 2.77335 -0.789261
thorax 1.48973 1.29909 -0.803109
lowerneck 5.5417 -4.7389 -4.43197
upperneck -9.16408 -6.59948 2.39101
head -3.73634 -3.24027 1.89038
rclavicle -1.47101e-014 1.43125e-014
rhumerus 18.3237 8.47598 -82.29
rradius 127.936
rwrist 24.7414
rhand 23.3771 -4.79973
rfingers 7.12502
rthumb 47.6671 -27.1664
lclavicle -1.47101e-014 1.43125e-014
lhumerus 25.321 -16.027 78.4426
lradius 128.286
lwrist -15.0041
lhand 15.6185 41.0323
lfingers 7.12502
lthumb 40.4335 66.1261
rfemur -40.1738 11.8697 12.5924
rtibia 55.3487
rfoot -21.8828 -5.97984
rtoes -16.1731
lfemur -33.403 11.4053 -24.9734
ltibia 55.6055
lfoot -29.8364 13.9291
ltoes -14.544
1906
root 0.676917 16.7452 -1.36612 5.94158 -22.0203 2.95198
lowerback 19.34 2.20444 -0.961206
upperback 11.2948 2.50768 -0.680437
thorax 1.34923 1.15754 -0.620022
lowerneck 5.56422 -4.6557 -4.41974
upperneck -9.11703 -6.50018 2.2522
head -3.73305 -3.18564 1.83758
rclavicle -4.85035e-014 1.39149e-014
rhumerus 18.2018 8.16612 -82.2062
rradius 127.895
rwrist 24.7822
rhand 23.4711 -4.75847
rfingers 7.12502
rthumb 47.7539 -27.0853
lclavicle -4.85035e-014 1.39149e-014
lhumerus 25.6333 -16.1478 78.2419
lradius 128.165
lwrist -14.9251
lhand 15.8093 40.7289
lfingers 7.12502
lthumb 40.6129 65.7671
rfemur -40.2627 12.1675 12.5138
rtibia 55.3566
rfoot -21.8349 -5.83151
rtoes -16.6467
lfemur -33.3834 11.6185 -25.0391
ltibia 55.756
lfoot -29.9988 14.2204
ltoes -14.6271
1907
root 0.719 16.7361 -1.3539 5.95263 -22.56 2.92364
lowerback 19.4337 2.00759 -1.07021
upperback 11.1976 2.23075 -0.599574
thorax 1.18693 1.00958 -0.429163
lowerneck 5.6552 -4.55883 -4.39392
upperneck -9.08648 -6.38466 2.10804
head -3.75005 -3.12281 1.7832
rclavicle 6.55989e-015 2.78299e-015
rhumerus 17.9438 7.92205 -82.091
rradius 127.884
rwrist 24.8353
rhand 23.2635 -4.71166
rfingers 7.12502
rthumb 47.5623 -27.1261
lclavicle 6.55989e-015 2.78299e-015
lhumerus 25.8927 -16.2356 78.0153
lradius 128.013
lwrist -14.872
lhand 15.8628 40.5351
lfingers 7.12502
lthumb 40.6632 65.5576
rfemur -40.4445 12.4239 12.3461
rtibia 55.3937
rfoot -21.7953 -5.59512
rtoes -16.7058
lfemur -33.4352 11.8202 -25.1939
ltibia 55.8923
lfoot -30.1984 14.4465
ltoes -14.5663
1908
root 0.760221 16.7276 -1.33932 5.95547 -23.1007 2.89546
lowerback 19.5175 1.79413 -1.1252
upperback 11.1349 1.94015 -0.560164
thorax 1.07281 0.858757 -0.307856
lowerneck 5.65989 -4.45102 -4.39199
upperneck -9.00467 -6.24505 2.03833
head -3.72972 -3.05138 1.7517
rclavicle -4.51241e-014 3.73715e-014
rhumerus 17.8234 7.77041 -81.9769
rradius 128.012
rwrist 24.8381
rhand 23.3173 -4.81335
rfingers 7.12502
rthumb 47.6119 -27.2052
lclavicle -4.51241e-014 3.73715e-014
lhumerus 26.1826 -16.3447 77.7133
lradius 127.877
lwrist -14.7751
lhand 15.7626 40.598
lfingers 7.12502
lthumb 40.569 65.6498
rfemur -40.6162 12.6575 12.1873
rtibia 55.4326
rfoot -21.7962 -5.3091
rtoes -16.4918
lfemur -33.4597 12.0182 -25.35
ltibia 56.0168
lfoot -30.4848 14.7482
ltoes -15.1302
1909
root 0.802804 16.7186 -1.32317 5.91545 -23.651 2.94045
lowerback 19.7884 1.60251 -1.26544
upperback 10.9803 1.66069 -0.510368
thorax 0.763516 0.710814 -0.133839
lowerneck 5.66976 -4.32493 -4.40018
upperneck -8.85538 -6.08666 1.90548
head -3.68888 -2.96814 1.69848
rclavicle -3.35946e-014 5.36719e-015
rhumerus 17.7144 7.64077 -81.9626
rradius 128.122
rwrist 24.9108
rhand 23.6783 -4.85806
rfingers 7.12502
rthumb 47.945 -27.0965
lclavicle -3.35946e-014 5.36719e-015
lhumerus 26.2726 -16.4963 77.5271
lradius 127.836
lwrist -14.5597
lhand 15.6355 40.7514
lfingers 7.12502
lthumb 40.4495 65.8402
rfemur -40.7861 12.9058 11.9435
rtibia 55.4807
rfoot -21.8287 -5.00356
rtoes -16.3366
lfemur -33.4691 12.2183 -25.5889
ltibia 56.141
lfoot -30.705 15.127
ltoes -15.8566
1910
root 0.843156 16.7108 -1.3096 5.90842 -24.1739 2.91712
lowerback 20.2326 1.41712 -1.42676
upperback 10.7029 1.38378 -0.402262
thorax 0.234216 0.564587 0.112029
lowerneck 5.83769 -4.16439 -4.49771
upperneck -8.75125 -5.89364 1.81378
head -3.69242 -2.86566 1.68034
rclavicle -3.77691e-015 -1.80894e-014
rhumerus 17.3681 7.65545 -81.9678
rradius 128.206
rwrist 25.0312
rhand 23.8966 -5.03438
rfingers 7.12502
rthumb 48.1462 -27.1787
lclavicle -3.77691e-015 -1.80894e-014
lhumerus 26.1445 -16.6178 77.4583
lradius 127.807
lwrist -14.4472
lhand 15.623 40.7664
lfingers 7.12502
lthumb 40.4378 65.8589
rfemur -40.9503 13.1603 11.7797
rtibia 55.5169
rfoot -21.7826 -4.87426
rtoes -16.9362
lfemur -33.507 12.4573 -25.7537
ltibia 56.2773
lfoot -30.8332 15.3711
ltoes -15.9425
1911
root 0.880854 16.7033 -1.29844 5.9231 -24.6742 2.8996
lowerback 19.1025 1.24131 -0.888109
upperback 11.4402 1.2512 -0.679693
thorax 1.62484 0.520025 -0.433982
lowerneck 6.00899 -4.20121 -4.31671
upperneck -9.62181 -5.90623 2.23776
head -4.02692 -2.88826 1.82273
rclavicle -2.50469e-014 -1.13307e-014
rhumerus 18.1722 6.89244 -82.1163
rradius 128.187
rwrist 25.1916
rhand 23.7951 -5.18393
rfingers 7.12502
rthumb 48.0526 -27.3722
lclavicle -2.50469e-014 -1.13307e-014
lhumerus 27.7384 -16.8985 76.6149
lradius 127.589
lwrist -14.2099
lhand 15.6427 40.6565
lfingers 7.12502
lthumb 40.4562 65.7433
rfemur -41.1431 13.4075 11.6144
rtibia 55.5427
rfoot -21.6975 -4.74144
rtoes -17.5161
lfemur -33.5926 12.6867 -25.9176
ltibia 56.4162
lfoot -31.0161 15.5337
ltoes -15.8317
1912
root 0.919092 16.6943 -1.28621 5.94296 -25.1622 2.85907
lowerback 18.9264 1.05361 -0.788707
upperback 11.5708 1.01994 -0.699145
thorax 1.85833 0.406598 -0.467721
lowerneck 6.07602 -4.09155 -4.32293
upperneck -9.80257 -5.75874 2.29443
head -4.10902 -2.81579 1.84422
rclavicle 3.97569e-016 -2.5842e-014
rhumerus 18.1831 6.7334 -82.1075
rradius 128.132
rwrist 25.2549
rhand 23.6273 -5.11726
rfingers 7.12502
rthumb 47.8979 -27.3776
lclavicle 3.97569e-016 -2.5842e-014
lhumerus 28.2248 -16.8783 76.3304
lradius 127.437
lwrist -14.1654
lhand 15.6562 40.53
lfingers 7.12502
lthumb 40.469 65.6128
rfemur -41.3198 13.6513 11.4725
rtibia 55.5639
rfoot -21.7221 -4.48598
rtoes -17.3454
lfemur -33.6677 12.9033 -26.0561
ltibia 56.5439
lfoot -31.2519 15.6327
ltoes -15.323
1913
root 0.958683 16.6894 -1.27327 5.89838 -25.6406 2.82069
lowerback 19.1885 0.887767 -0.7371
upperback 11.4964 0.804685 -0.644041
thorax 1.64352 0.297932 -0.40585
lowerneck 6.08012 -3.99145 -4.41925
upperneck -9.69945 -5.64201 2.20078
head -4.07775 -2.75092 1.82145
rclavicle 3.00165e-014 7.95139e-016
rhumerus 17.9711 6.69275 -82.0007
rradius 128.126
rwrist 25.3686
rhand 23.4615 -5.0659
rfingers 7.12502
rthumb 47.745 -27.3968
lclavicle 3.00165e-014 7.95139e-016
lhumerus 28.4125 -16.8824 76.2093
lradius 127.322
lwrist -14.2699
lhand 15.7716 40.3592
lfingers 7.12502
lthumb 40.5775 65.4084
rfemur -41.4029 13.8803 11.3488
rtibia 55.5737
rfoot -21.7276 -4.27568
rtoes -17.3117
lfemur -33.6485 13.1162 -26.186
ltibia 56.6441
lfoot -31.4853 15.7431
ltoes -14.8142
1914
root 0.99565 16.6865 -1.26122 5.78254 -26.1617 2.89834
lowerback 19.208 0.793799 -0.758318
upperback 11.6123 0.672415 -0.624689
thorax 1.75968 0.226314 -0.350628
lowerneck 6.11993 -3.93561 -4.5755
upperneck -9.80754 -5.58303 2.23446
head -4.12205 -2.71651 1.86242
rclavicle 2.10712e-014 2.48481e-014
rhumerus 18.0623 6.54541 -81.8446
rradius 128.101
rwrist 25.4435
rhand 23.3495 -5.15029
rfingers 7.12502
rthumb 47.6416 -27.5286
lclavicle 2.10712e-014 2.48481e-014
lhumerus 28.8088 -16.9292 76.0719
lradius 127.288
lwrist -14.161
lhand 15.7521 40.1823
lfingers 7.12502
lthumb 40.5591 65.2372
rfemur -41.483 14.1346 11.1135
rtibia 55.5876
rfoot -21.6988 -4.08392
rtoes -17.4699
lfemur -33.5861 13.3351 -26.4147
ltibia 56.7197
lfoot -31.7133 15.8614
ltoes -14.5218
